<?xml version="1.0" encoding="UTF-8"?>
<svg version="1.1" xmlns="http://www.w3.org/2000/svg" width="512" height="512">
<path d="M0 0 C1.81641864 -0.00345971 3.63283518 -0.00822638 5.44924736 -0.01418173 C10.4240977 -0.02667829 15.39877488 -0.02052743 20.37362576 -0.01122308 C25.74520973 -0.00442744 31.1167642 -0.01491638 36.48834229 -0.02316284 C47.00474652 -0.03649685 57.52108649 -0.0336239 68.03749323 -0.02492492 C76.5850391 -0.01814749 85.13256696 -0.01723192 93.68011475 -0.02049637 C94.89703156 -0.02095607 96.11394838 -0.02141577 97.36774147 -0.0218894 C99.83994882 -0.02284858 102.31215617 -0.02382122 104.78436351 -0.02480717 C127.96172451 -0.03336009 151.1390499 -0.02352845 174.31640506 -0.00740607 C194.20004959 0.00599701 214.08364157 0.00366889 233.96728516 -0.01016235 C257.06218646 -0.02621988 280.15705656 -0.03253613 303.25196266 -0.02332556 C305.71503321 -0.02236992 308.17810376 -0.02142681 310.64117432 -0.02049637 C311.85302584 -0.02003354 313.06487736 -0.01957072 314.31345165 -0.01909386 C322.84990557 -0.0165045 331.38633968 -0.02087383 339.92279053 -0.02793503 C350.32704253 -0.03635212 360.73122664 -0.03406543 371.13547087 -0.0180928 C376.4430156 -0.01021296 381.75044716 -0.00711367 387.05799103 -0.01704025 C391.91863866 -0.02599347 396.77906843 -0.02104383 401.63969636 -0.0051076 C403.39595457 -0.00176247 405.15223127 -0.00344781 406.90847754 -0.01073496 C415.6913378 -0.04437584 423.89153507 -0.02591745 432.16064453 3.38095093 C430.67795876 6.4875976 429.18766435 8.581854 426.71142578 10.99032593 C425.6856543 11.99966187 425.6856543 11.99966187 424.63916016 13.02938843 C423.56698242 14.06966187 423.56698242 14.06966187 422.47314453 15.13095093 C421.07086434 16.49814162 419.67111023 17.86792813 418.27392578 19.24032593 C417.34253784 20.1447644 417.34253784 20.1447644 416.39233398 21.06747437 C414.52804753 23.00008332 412.78185135 24.96780982 411.0339365 27.00357246 C407.17630753 31.42209409 403.10316663 35.58664109 398.95628357 39.73248291 C398.15824328 40.53419989 397.36020299 41.33591686 396.53797966 42.1619283 C393.88127724 44.8295848 391.2210637 47.49371062 388.56079102 50.1578064 C386.64788895 52.07645405 384.73569551 53.99580747 382.82342529 55.91508484 C377.10328114 61.65488742 371.37838336 67.38993713 365.6528624 73.12437552 C362.95315494 75.82847744 360.25393235 78.53306326 357.55464363 81.23758316 C348.57915703 90.23006025 339.60242457 99.22129091 330.62206936 108.20890617 C328.29776004 110.53512514 325.9734561 112.86134947 323.64916992 115.18759155 C322.78271366 116.05477342 322.78271366 116.05477342 321.89875323 116.93947412 C312.52314539 126.3233983 303.1560979 135.71581941 293.79255819 145.11178397 C284.16981997 154.76757208 274.53958785 164.41583398 264.90190941 174.05671036 C259.49434969 179.4664355 254.09013126 184.879409 248.69427299 190.30080795 C244.10431672 194.91244164 239.50762653 199.51722585 234.90195113 204.11316304 C232.55280464 206.45775824 230.20813545 208.80654174 227.86987495 211.16200066 C225.33504516 213.71443191 222.78825328 216.25429156 220.23802185 218.7913208 C219.50153882 219.53877308 218.76505579 220.28622535 218.00625509 221.0563277 C212.47699212 226.51651716 208.3118361 228.52539787 200.38330078 228.74423218 C192.5744379 227.4679154 188.09046857 222.87613043 182.73522949 217.44328308 C181.91339345 216.62557031 181.09155742 215.80785754 180.24481726 214.96536559 C177.97511061 212.70302655 175.71456996 210.43197518 173.45765758 208.1568855 C171.01769129 205.70166566 168.5661548 203.25804576 166.11604309 200.81295776 C161.32110598 196.02424058 156.53683672 191.22500015 151.75601065 186.4221997 C146.18376144 180.82522814 140.6006061 175.23918896 135.01688284 169.65366813 C125.0500873 159.68299714 115.09261523 149.70306766 105.140625 139.71762085 C95.49325232 130.03784233 85.84032806 120.36364966 76.18066406 110.69613647 C75.58607484 110.10106176 74.99148561 109.50598704 74.37887853 108.89287976 C71.98854595 106.50061825 69.59820496 104.10836513 67.20784542 101.71613054 C57.99106691 92.49180684 48.77833121 83.26344591 39.56644663 74.03423515 C36.78706059 71.24962219 34.00752782 68.46515607 31.22762871 65.68105531 C25.38210227 59.82658621 19.53803712 53.97067216 13.69843376 48.11029432 C11.28459216 45.68789544 8.87003151 43.26622668 6.4533329 40.84667778 C3.82858904 38.21793075 1.20693627 35.58613884 -1.41394043 32.95353699 C-2.54931425 31.81843971 -2.54931425 31.81843971 -3.70762491 30.66041118 C-7.73239706 26.61036115 -11.59148668 22.47414802 -15.30256891 18.13398379 C-18.10985137 14.93167936 -21.19525148 12.01932886 -24.27099609 9.07626343 C-25.49615038 7.87999628 -26.67258422 6.63422782 -27.83935547 5.38095093 C-27.83935547 4.72095093 -27.83935547 4.06095093 -27.83935547 3.38095093 C-18.77128059 -0.35509074 -9.61414565 -0.03989175 0 0 Z " fill="#000000" transform="translate(53.83935546875,75.61904907226563)"/>
<path d="M0 0 C3.35316546 1.58859719 5.53005992 3.30541545 8.13500977 5.97143555 C8.94007462 6.78956223 9.74513947 7.6076889 10.57460022 8.4506073 C11.8699192 9.78023247 11.8699192 9.78023247 13.19140625 11.13671875 C14.56788774 12.53202736 15.94438206 13.92732356 17.32158566 15.32191944 C20.70542992 18.75142889 24.07864057 22.191327 27.44555664 25.63745117 C29.33467264 27.57017441 31.22932987 29.49716284 33.12986755 31.4186554 C34.91286605 33.22210047 36.68771129 35.03365722 38.45277405 36.85466003 C49.36416527 47.85519542 60.93530022 54.78134663 76.625 55.25 C97.6490343 54.98980156 110.07928772 42.11367018 124.0703125 28.02734375 C124.87741669 27.21882462 125.68452087 26.41030548 126.51608276 25.57728577 C129.05477873 23.03306065 131.58994672 20.48535414 134.125 17.9375 C135.8617454 16.19573042 137.5987226 14.45419194 139.3359375 12.71289062 C143.55997002 8.47792328 147.78112388 4.24010384 152 0 C155.91923272 1.59095304 158.55931993 4.28206861 161.48310852 7.23587036 C162.02469972 7.77504715 162.56629093 8.31422394 163.12429398 8.86973941 C164.93831813 10.67812689 166.74510427 12.493576 168.55200195 14.30908203 C169.85114046 15.60714759 171.1507118 16.90478007 172.45068359 18.20201111 C175.9822602 21.72873609 179.50754704 25.26168772 183.03162408 28.79590464 C186.72329705 32.49636186 190.42024184 36.19154532 194.11650085 39.88742065 C200.32807128 46.09992814 206.53575487 52.31629806 212.7409668 58.53515625 C219.9039379 65.71382217 227.07209085 72.88727947 234.24328071 80.05773461 C241.88603432 87.69981104 249.52496695 95.34569818 257.16279578 102.99269629 C259.35837185 105.19039834 261.55465283 107.38739381 263.75109291 109.58423233 C267.21309907 113.04724798 270.67252595 116.51282069 274.13002777 119.98033333 C275.39531565 121.2485263 276.66143268 122.51589267 277.92846489 123.78234291 C289.53519939 135.3857653 289.53519939 135.3857653 294.62193584 141.40562248 C297.35623575 144.56912273 300.41240079 147.41568938 303.43164062 150.3046875 C304.65679491 151.50095465 305.83322875 152.74672311 307 154 C307 154.66 307 155.32 307 156 C297.93192512 159.73604167 288.77479018 159.42084268 279.16064453 159.38095093 C277.34422589 159.38441064 275.52780935 159.3891773 273.71139717 159.39513266 C268.73654683 159.40762921 263.76186965 159.40147836 258.78701878 159.39217401 C253.4154348 159.38537837 248.04388033 159.39586731 242.67230225 159.40411377 C232.15589801 159.41744777 221.63955804 159.41457482 211.1231513 159.40587585 C202.57560544 159.39909842 194.02807757 159.39818284 185.48052979 159.4014473 C184.26361297 159.401907 183.04669615 159.40236669 181.79290307 159.40284032 C179.32069571 159.40379951 176.84848837 159.40477215 174.37628102 159.4057581 C151.19892002 159.41431102 128.02159463 159.40447938 104.84423947 159.388357 C84.96059494 159.37495392 65.07700296 159.37728204 45.19335938 159.39111328 C22.09845807 159.4071708 -0.99641203 159.41348705 -24.09131813 159.40427649 C-26.55438868 159.40332085 -29.01745923 159.40237774 -31.48052979 159.4014473 C-32.6923813 159.40098447 -33.90423282 159.40052164 -35.15280712 159.40004479 C-43.68926103 159.39745543 -52.22569515 159.40182476 -60.762146 159.40888596 C-71.166398 159.41730305 -81.5705821 159.41501635 -91.97482634 159.39904372 C-97.28237107 159.39116389 -102.58980262 159.3880646 -107.8973465 159.39799118 C-112.75799413 159.4069444 -117.6184239 159.40199476 -122.47905183 159.38605852 C-124.23531004 159.3827134 -125.99158673 159.38439874 -127.74783301 159.39168589 C-136.53069327 159.42532677 -144.73089053 159.40686837 -153 156 C-151.61041043 153.10755666 -150.29961931 151.0662374 -147.98828125 148.828125 C-147.39466797 148.24546875 -146.80105469 147.6628125 -146.18945312 147.0625 C-145.57005859 146.464375 -144.95066406 145.86625 -144.3125 145.25 C-140.75706924 141.79768055 -137.26258072 138.36207537 -134.06578064 134.57116699 C-128.76540306 128.4819927 -122.98568442 122.85447226 -117.27172852 117.15820312 C-115.98970912 115.87646622 -114.70791072 114.59450825 -113.42631531 113.31234741 C-109.96626519 109.85201174 -106.50315229 106.39475636 -103.03946042 102.93806648 C-99.41284928 99.31772926 -95.78909157 95.69453816 -92.1650238 92.07165527 C-85.31073126 85.22046417 -78.45389478 78.37182502 -71.59612936 71.52411032 C-63.78518499 63.72436402 -55.97709805 55.92175989 -48.16924393 48.11892033 C-32.11599559 32.07610948 -16.05918136 16.03687162 0 0 Z " fill="#000000" transform="translate(179,277)"/>
<path d="M0 0 C4.18463995 1.92183742 7.04550766 4.77278386 10.25152588 8.01101685 C10.87564354 8.63342565 11.4997612 9.25583446 12.14279151 9.89710414 C14.23572064 11.98673547 16.32141508 14.08344155 18.40722656 16.18017578 C19.90490493 17.6784182 21.40302364 19.17622054 22.90155029 20.6736145 C26.97179022 24.74327968 31.03582629 28.81909 35.0987978 32.89600992 C39.34466437 37.15436336 43.59618033 41.4070687 47.84710693 45.66036987 C55.89749411 53.71697782 63.94276866 61.7786713 71.98623061 69.84219253 C81.14303109 79.02133339 90.30549871 88.19480838 99.46845293 97.36780572 C118.31862623 116.23889456 137.16165147 135.11710741 156 154 C154.34780319 158.25311631 151.17555064 161.10264776 148.00244141 164.25152588 C147.38144373 164.87564354 146.76044605 165.4997612 146.12063026 166.14279151 C144.03568221 168.23572569 141.94364747 170.32142818 139.8515625 172.40722656 C138.35657894 173.90491965 136.86202131 175.403038 135.36785889 176.90155029 C131.30653967 180.97199872 127.23890553 185.03608157 123.16985321 189.0987978 C118.91835051 193.34524516 114.67172034 197.59656064 110.42431641 201.84710693 C103.2923333 208.98273025 96.15613947 216.11412213 89.01757812 223.24316406 C80.75338721 231.49646202 72.4964374 239.75695174 64.24319649 248.02119851 C57.16575425 255.10770212 50.08444011 262.19031894 42.9998455 269.26967216 C38.76452153 273.50187117 34.5305769 277.7354263 30.30010986 281.97248077 C26.32545372 285.95289333 22.34597712 289.92842146 18.36264801 293.90015411 C16.89753632 295.36261041 15.43414403 296.82679145 13.97255707 298.29277039 C11.98545838 300.28529118 9.99237272 302.2716168 7.99755859 304.25640869 C7.41332438 304.84510435 6.82909016 305.43380002 6.22715187 306.04033494 C2.22830039 310 2.22830039 310 0 310 C-3.42298678 302.1010341 -4.57865865 295.38617308 -4.50793457 286.81762695 C-4.51417453 285.63992642 -4.5204145 284.46222589 -4.52684355 283.24883747 C-4.53995104 280.0110653 -4.53535223 276.77390267 -4.52289867 273.53614664 C-4.51379539 270.03231629 -4.52784388 266.52856422 -4.53881836 263.02474976 C-4.55655225 256.1731111 -4.55278661 249.32164828 -4.5411678 242.47000289 C-4.53211345 236.89873935 -4.5309181 231.3275249 -4.53526306 225.7562561 C-4.53587599 224.96161841 -4.53648893 224.16698071 -4.53712043 223.34826308 C-4.53839941 221.73368699 -4.53969626 220.11911091 -4.5410108 218.50453484 C-4.55240156 203.38469942 -4.53932655 188.2649612 -4.51780933 173.14514172 C-4.4999397 160.18753281 -4.50304424 147.23006726 -4.52148438 134.27246094 C-4.54291771 119.20464692 -4.55130307 104.13691798 -4.53903532 89.06909084 C-4.5377612 87.46064187 -4.53650372 85.85219289 -4.53526306 84.2437439 C-4.53464596 83.45247284 -4.53402886 82.66120178 -4.53339306 81.84595281 C-4.52994754 76.28502718 -4.53575124 70.72415576 -4.54518127 65.16323853 C-4.55643007 58.38108036 -4.55330098 51.59910723 -4.5320583 44.81697011 C-4.52158636 41.36032259 -4.51735942 37.90398296 -4.53065491 34.4473381 C-4.54162143 30.69204482 -4.52783144 26.93761185 -4.50793457 23.18237305 C-4.51685746 22.10132451 -4.52578034 21.02027597 -4.53497362 19.90646839 C-4.4600141 12.58846983 -2.90671359 6.70760156 0 0 Z " fill="#000000" transform="translate(4,101)"/>
<path d="M0 0 C3.42298678 7.8989659 4.57865865 14.61382692 4.50793457 23.18237305 C4.51417453 24.36007358 4.5204145 25.53777411 4.52684355 26.75116253 C4.53995104 29.9889347 4.53535223 33.22609733 4.52289867 36.46385336 C4.51379539 39.96768371 4.52784388 43.47143578 4.53881836 46.97525024 C4.55655225 53.8268889 4.55278661 60.67835172 4.5411678 67.52999711 C4.53211345 73.10126065 4.5309181 78.6724751 4.53526306 84.2437439 C4.53587599 85.03838159 4.53648893 85.83301929 4.53712043 86.65173692 C4.53839941 88.26631301 4.53969626 89.88088909 4.5410108 91.49546516 C4.55240156 106.61530058 4.53932655 121.7350388 4.51780933 136.85485828 C4.4999397 149.81246719 4.50304424 162.76993274 4.52148438 175.72753906 C4.54291771 190.79535308 4.55130307 205.86308202 4.53903532 220.93090916 C4.5377612 222.53935813 4.53650372 224.14780711 4.53526306 225.7562561 C4.53433741 226.94316269 4.53433741 226.94316269 4.53339306 228.15404719 C4.52994754 233.71497282 4.53575124 239.27584424 4.54518127 244.83676147 C4.55643007 251.61891964 4.55330098 258.40089277 4.5320583 265.18302989 C4.52158636 268.63967741 4.51735942 272.09601704 4.53065491 275.5526619 C4.54162143 279.30795518 4.52783144 283.06238815 4.50793457 286.81762695 C4.51685746 287.89867549 4.52578034 288.97972403 4.53497362 290.09353161 C4.4600141 297.41153017 2.90671359 303.29239844 0 310 C-4.18463995 308.07816258 -7.04550766 305.22721614 -10.25152588 301.98898315 C-10.87564354 301.36657435 -11.4997612 300.74416554 -12.14279151 300.10289586 C-14.23572064 298.01326453 -16.32141508 295.91655845 -18.40722656 293.81982422 C-19.90490493 292.3215818 -21.40302364 290.82377946 -22.90155029 289.3263855 C-26.97179022 285.25672032 -31.03582629 281.18091 -35.0987978 277.10399008 C-39.34466437 272.84563664 -43.59618033 268.5929313 -47.84710693 264.33963013 C-55.89749411 256.28302218 -63.94276866 248.2213287 -71.98623061 240.15780747 C-81.14303109 230.97866661 -90.30549871 221.80519162 -99.46845293 212.63219428 C-118.31862623 193.76110544 -137.16165147 174.88289259 -156 156 C-153.59512922 151.48202344 -150.51361495 148.23188322 -146.92015076 144.66618347 C-146.30238221 144.04529494 -145.68461366 143.42440641 -145.04812485 142.78470308 C-142.98009278 140.70870352 -140.90499727 138.63991432 -138.82983398 136.57104492 C-137.34455541 135.08305602 -135.85970259 133.59464204 -134.37524414 132.10583496 C-130.34496965 128.06644158 -126.30839302 124.03340146 -122.27038836 120.00173736 C-118.04958584 115.78599453 -113.83366077 111.56537865 -109.61695862 107.34553528 C-102.53802945 100.26296759 -95.45489331 93.18462772 -88.36938477 86.10864258 C-80.16708701 77.91724173 -71.97203625 69.71864358 -63.7806887 61.5162937 C-56.75418113 54.48072505 -49.72380214 47.44904282 -42.69014221 40.42062455 C-38.48613244 36.21973935 -34.28350122 32.017499 -30.08434868 27.81175804 C-26.14004776 23.86170098 -22.19092716 19.91652806 -18.23795319 15.97515106 C-16.78412857 14.5239818 -15.33202327 13.07108785 -13.8817234 11.61639595 C-11.91000467 9.63925508 -9.93229975 7.66831021 -7.9528656 5.69889832 C-7.37320445 5.11477572 -6.7935433 4.53065313 -6.19631666 3.92882985 C-2.22830068 0 -2.22830068 0 0 0 Z " fill="#000000" transform="translate(508,101)"/>
</svg>
