<?xml version="1.0" encoding="UTF-8"?>
<svg version="1.1" xmlns="http://www.w3.org/2000/svg" width="512" height="512">
<path d="M0 0 C1.34350586 1.58447266 1.34350586 1.58447266 2.71484375 3.6640625 C3.23022705 4.44450928 3.74561035 5.22495605 4.27661133 6.02905273 C5.09875122 7.31404663 5.09875122 7.31404663 5.9375 8.625 C6.50944092 9.51582275 7.08138184 10.40664551 7.6706543 11.32446289 C26.27487924 40.80610646 37.84006409 72.56318819 43 107 C43.10747559 107.69673828 43.21495117 108.39347656 43.32568359 109.11132812 C44.31490725 116.50719924 44 123.35351569 44 131 C10.67 131 -22.66 131 -57 131 C-57.99 116.81 -58.98 102.62 -60 88 C-62.45771993 67.82974679 -65.19516121 46.5352797 -71.1796875 26.98828125 C-71.96328475 24.13374839 -72.06497059 21.93141128 -72 19 C-71.08226807 18.78496826 -70.16453613 18.56993652 -69.21899414 18.34838867 C-50.21593138 13.86856442 -31.58758757 8.8903916 -13.17407227 2.36791992 C-12.5091275 2.13539017 -11.84418274 1.90286041 -11.15908813 1.6632843 C-9.36917623 1.03536601 -7.58369758 0.39485033 -5.79858398 -0.24658203 C-3 -1 -3 -1 0 0 Z " fill="#000000" transform="translate(444,117)"/>
<path d="M0 0 C5.18093697 1.51989246 10.33720922 3.09322167 15.4609375 4.796875 C30.19330489 9.67817863 45.02647016 13.69472493 60.11767578 17.30761719 C63.75150332 18.18052375 67.37624202 19.08629848 71 20 C70.33272685 27.01971359 68.74577421 33.75260633 67.16125488 40.6156311 C60.23485086 70.90682508 58.1823163 100.72013303 56 132 C22.67 132 -10.66 132 -45 132 C-45 114.33276122 -45 114.33276122 -43.875 106.5625 C-43.74375732 105.64275391 -43.61251465 104.72300781 -43.47729492 103.77539062 C-37.69311896 65.88280994 -22.32931878 30.96691241 0 0 Z " fill="#000000" transform="translate(69,116)"/>
<path d="M0 0 C33.33 0 66.66 0 101 0 C101 17.66353887 101 17.66353887 99.875 25.4375 C99.74448242 26.3557959 99.61396484 27.2740918 99.47949219 28.22021484 C93.70022941 66.18266709 78.42840078 100.98286498 56 132 C50.81906303 130.48010754 45.66279078 128.90677833 40.5390625 127.203125 C25.80669511 122.32182137 10.97352984 118.30527507 -4.11767578 114.69238281 C-7.75150332 113.81947625 -11.37624202 112.91370152 -15 112 C-14.30211619 105.05479481 -12.77528175 98.41492679 -11.1875 91.625 C-4.33229131 61.325429 -1.82139568 30.96372663 0 0 Z " fill="#000000" transform="translate(387,264)"/>
<path d="M0 0 C33.33 0 66.66 0 101 0 C101.99 14.19 102.98 28.38 104 43 C105.97259443 60.11930166 108.76041859 76.65433481 112.62597656 93.3972168 C113.06441895 95.2985437 113.06441895 95.2985437 113.51171875 97.23828125 C113.77428467 98.35243408 114.03685059 99.46658691 114.30737305 100.61450195 C115.08326527 104.40699311 115.5625358 108.15467128 116 112 C115.08226807 112.21503174 114.16453613 112.43006348 113.21899414 112.65161133 C94.21593138 117.13143558 75.58758757 122.1096084 57.17407227 128.63208008 C56.5091275 128.86460983 55.84418274 129.09713959 55.15908813 129.3367157 C53.36917623 129.96463399 51.58369758 130.60514967 49.79858398 131.24658203 C47 132 47 132 44 131 C42.79248047 129.57983398 42.79248047 129.57983398 41.6171875 127.74609375 C41.17673096 127.06482422 40.73627441 126.38355469 40.2824707 125.68164062 C39.81800537 124.94107422 39.35354004 124.20050781 38.875 123.4375 C38.38926514 122.67244141 37.90353027 121.90738281 37.40307617 121.11914062 C32.65080879 113.56525037 28.16202237 105.89442917 24 98 C23.66403809 97.36755371 23.32807617 96.73510742 22.98193359 96.08349609 C7.55862354 66.58293767 0 33.10746948 0 0 Z " fill="#000000" transform="translate(24,264)"/>
<path d="M0 0 C35.97 0 71.94 0 109 0 C109.020625 16.479375 109.04125 32.95875 109.0625 49.9375 C109.071604 55.14909912 109.08070801 60.36069824 109.09008789 65.73022461 C109.09460449 72.07336426 109.09460449 72.07336426 109.09544373 75.03883362 C109.09698361 77.11879184 109.10050943 79.19874916 109.10557556 81.27870178 C109.11285039 84.42141277 109.11390751 87.56406901 109.11352539 90.70678711 C109.1171235 91.64002524 109.12072161 92.57326338 109.12442875 93.53478146 C109.11402634 99.88597366 109.11402634 99.88597366 108 101 C106.61176061 101.16014609 105.21604277 101.25621233 103.8203125 101.32543945 C102.92473633 101.37266647 102.02916016 101.41989349 101.10644531 101.46855164 C99.63062988 101.54019279 99.63062988 101.54019279 98.125 101.61328125 C96.01819831 101.72549631 93.91142865 101.83831412 91.8046875 101.95166016 C90.13744629 102.03954803 90.13744629 102.03954803 88.43652344 102.12921143 C68.19505597 103.2087995 48.19301898 104.82425245 28.11328125 107.59082031 C23.751574 108.16408108 19.38108518 108.60504618 15 109 C8.13852717 83.68065965 3.28429811 58.16318188 1 32 C0.88914063 30.74058594 0.77828125 29.48117187 0.6640625 28.18359375 C-0.06585172 18.7243 0 9.54803553 0 0 Z " fill="#000000" transform="translate(140,264)"/>
<path d="M0 0 C6.86147283 25.31934035 11.71570189 50.83681812 14 77 C14.11085938 78.25941406 14.22171875 79.51882812 14.3359375 80.81640625 C15.06585172 90.2757 15 99.45196447 15 109 C-20.97 109 -56.94 109 -94 109 C-94.0309375 84.2809375 -94.0309375 84.2809375 -94.0625 59.0625 C-94.071604 53.85090088 -94.08070801 48.63930176 -94.09008789 43.26977539 C-94.09460449 36.92663574 -94.09460449 36.92663574 -94.09544373 33.96116638 C-94.09698361 31.88120816 -94.10050943 29.80125084 -94.10557556 27.72129822 C-94.11285039 24.57858723 -94.11390751 21.43593099 -94.11352539 18.29321289 C-94.1171235 17.35997476 -94.12072161 16.42673662 -94.12442875 15.46521854 C-94.11402634 9.11402634 -94.11402634 9.11402634 -93 8 C-91.61176061 7.83985391 -90.21604277 7.74378767 -88.8203125 7.67456055 C-87.92475143 7.62733353 -87.02919037 7.58010651 -86.10649109 7.53144836 C-84.630653 7.45980721 -84.630653 7.45980721 -83.125 7.38671875 C-81.01795407 7.27450563 -78.91094027 7.16168776 -76.80395508 7.04833984 C-75.69243073 6.98974792 -74.58090637 6.93115601 -73.43569946 6.87078857 C-50.72925246 5.65943923 -28.31806417 3.71220536 -5.82421875 0.3828125 C-3 0 -3 0 0 0 Z " fill="#000000" transform="translate(357,139)"/>
<path d="M0 0 C0.56468994 0.07516846 1.12937988 0.15033691 1.71118164 0.2277832 C28.08427711 3.70616076 54.40555085 6.17198248 80.97509766 7.35375977 C82.16700714 7.40885963 82.16700714 7.40885963 83.38299561 7.46507263 C84.88333258 7.53382163 86.38386678 7.59842607 87.88458252 7.65834045 C92.88824009 7.88824009 92.88824009 7.88824009 94 9 C94.09533753 12.10510487 94.12549821 15.1878342 94.11352539 18.29321289 C94.11364593 19.28455199 94.11376646 20.27589109 94.11389065 21.29727077 C94.11314123 24.52242169 94.1055117 27.7475156 94.09765625 30.97265625 C94.09618692 32.9573158 94.09516615 34.94197573 94.09460449 36.92663574 C94.08935058 44.30526305 94.07538951 51.68388208 94.0625 59.0625 C94.041875 75.541875 94.02125 92.02125 94 109 C58.03 109 22.06 109 -15 109 C-15 88.99096386 -15 88.99096386 -14.25 80.1875 C-14.16202148 79.14182861 -14.07404297 78.09615723 -13.98339844 77.01879883 C-11.64820619 50.97523972 -7.13177591 25.16745467 0 0 Z " fill="#000000" transform="translate(155,139)"/>
<path d="M0 0 C35.97 0 71.94 0 109 0 C109 11.05090818 108.85571627 21.73828361 107.8125 32.6875 C107.7150499 33.73574951 107.7150499 33.73574951 107.6156311 34.80517578 C105.37301297 58.60313038 100.95614562 81.85654602 95 105 C94.66553493 106.33304989 94.33180055 107.66628441 94 109 C93.43531006 108.92483154 92.87062012 108.84966309 92.28881836 108.7722168 C65.91572289 105.29383924 39.59444915 102.82801752 13.02490234 101.64624023 C12.23029602 101.60950699 11.4356897 101.57277374 10.61700439 101.53492737 C9.11666742 101.46617837 7.61613322 101.40157393 6.11541748 101.34165955 C1.11175991 101.11175991 1.11175991 101.11175991 0 100 C-0.09533753 96.89489513 -0.12549821 93.8121658 -0.11352539 90.70678711 C-0.11364593 89.71544801 -0.11376646 88.72410891 -0.11389065 87.70272923 C-0.11314123 84.47757831 -0.1055117 81.2524844 -0.09765625 78.02734375 C-0.09618692 76.0426842 -0.09516615 74.05802427 -0.09460449 72.07336426 C-0.08935058 64.69473695 -0.07538951 57.31611792 -0.0625 49.9375 C-0.041875 33.458125 -0.02125 16.97875 0 0 Z " fill="#000000" transform="translate(263,264)"/>
<path d="M0 0 C17.94533155 0 32.59383933 10.95343819 45 23 C45.5878125 23.5259375 46.175625 24.051875 46.78125 24.59375 C66.9801255 43.26818207 80.7636187 73.31778153 89 99 C89 99.66 89 100.32 89 101 C71.69711203 103.52674759 54.45153538 105.77795965 37 107 C36.20062012 107.05784668 35.40124023 107.11569336 34.57763672 107.17529297 C23.03273626 107.9900849 11.60014485 108 0 108 C0 72.36 0 36.72 0 0 Z " fill="#000000" transform="translate(263,24)"/>
<path d="M0 0 C0 35.64 0 71.28 0 108 C-22.44916751 108 -22.44916751 108 -33.625 107.25 C-35.5594397 107.12347046 -35.5594397 107.12347046 -37.53295898 106.99438477 C-54.72042347 105.80827626 -72.01855634 103.91941368 -89 101 C-78.95573185 65.04027822 -57.36834306 26.25493089 -24.4453125 6.796875 C-16.4089643 2.60558229 -9.16886048 0 0 0 Z " fill="#000000" transform="translate(249,24)"/>
<path d="M0 0 C0 35.64 0 71.28 0 108 C-5.82108867 108 -9.47902727 107.52353186 -14.6875 105.5 C-15.38375488 105.23227783 -16.08000977 104.96455566 -16.79736328 104.6887207 C-27.79394724 100.26258935 -36.50034023 93.12686767 -45 85 C-45.59039062 84.47277344 -46.18078125 83.94554687 -46.7890625 83.40234375 C-66.99590451 64.67989061 -80.63496855 34.74117401 -89 9 C-89 8.34 -89 7.68 -89 7 C-71.69711203 4.47325241 -54.45153538 2.22204035 -37 1 C-36.20062012 0.94215332 -35.40124023 0.88430664 -34.57763672 0.82470703 C-23.03273626 0.0099151 -11.60014485 0 0 0 Z " fill="#000000" transform="translate(249,380)"/>
<path d="M0 0 C22.44916751 0 22.44916751 0 33.625 0.75 C34.91462646 0.83435303 36.20425293 0.91870605 37.53295898 1.00561523 C54.72042347 2.19172374 72.01855634 4.08058632 89 7 C78.95573185 42.95972178 57.36834306 81.74506911 24.4453125 101.203125 C16.4089643 105.39441771 9.16886048 108 0 108 C0 72.36 0 36.72 0 0 Z " fill="#000000" transform="translate(263,380)"/>
<path d="M0 0 C-0.72703125 0.62003906 -1.4540625 1.24007813 -2.203125 1.87890625 C-26.97800586 23.49032786 -43.81079916 54.5765251 -53.90942383 85.52929688 C-54.52782202 87.38094343 -55.25370559 89.1960998 -56 91 C-59.82740347 92.27580116 -61.82063341 91.56722937 -65.74609375 90.6640625 C-66.42149704 90.50932465 -67.09690033 90.35458679 -67.79277039 90.19515991 C-70.01022716 89.68205108 -72.22395345 89.15470718 -74.4375 88.625 C-75.18988953 88.44759277 -75.94227905 88.27018555 -76.71746826 88.08740234 C-91.75746819 84.52669424 -106.38626558 80.03170658 -121 75 C-121 70.59724021 -120.83574599 70.32532717 -118 67.35546875 C-117.35933594 66.67806641 -116.71867187 66.00066406 -116.05859375 65.30273438 C-115.03958984 64.25569336 -115.03958984 64.25569336 -114 63.1875 C-113.35160156 62.50107422 -112.70320313 61.81464844 -112.03515625 61.10742188 C-83.82074894 31.5800669 -47.06027778 11.10953553 -8 0 C-6.94039062 -0.30164063 -6.94039062 -0.30164063 -5.859375 -0.609375 C-3.6207041 -1.07968401 -2.15547182 -0.69283023 0 0 Z " fill="#000000" transform="translate(202,30)"/>
<path d="M0 0 C2.84281398 0.42439374 5.62337624 0.92622577 8.4375 1.5 C9.31841309 1.67869629 10.19932617 1.85739258 11.10693359 2.04150391 C29.06373498 5.80829526 46.70340866 10.89926429 64 17 C64 21.30034623 63.95229559 21.55284457 61.21875 24.42578125 C60.62819824 25.05395752 60.03764648 25.68213379 59.42919922 26.3293457 C58.79256348 26.98378662 58.15592773 27.63822754 57.5 28.3125 C56.85434082 28.98821045 56.20868164 29.6639209 55.54345703 30.36010742 C51.22800163 34.83778575 46.81806283 39.06555873 42 43 C41.14664063 43.74121094 40.29328125 44.48242188 39.4140625 45.24609375 C17.22045215 64.31593857 -8.50142963 78.68361306 -36.1875 88 C-37.33395996 88.38615479 -38.48041992 88.77230957 -39.66162109 89.17016602 C-45.47000611 91.06000616 -50.9045046 92.52367313 -57 93 C-56.01 92.01 -56.01 92.01 -55 91 C-54.5359375 90.53078125 -54.071875 90.0615625 -53.59375 89.578125 C-52.53094065 88.52573535 -51.44716764 87.49410624 -50.34375 86.484375 C-27.35874594 64.86288813 -12.35020151 33.75037821 -2.20703125 4.375 C-1 1 -1 1 0 0 Z " fill="#000000" transform="translate(367,390)"/>
<path d="M0 0 C36.83466465 2.95393422 75.3063751 28.08574426 101.65625 52.80859375 C103.74144264 54.75824886 105.87667202 56.6029658 108.0625 58.4375 C113.16123627 62.84721786 117.54745129 67.9543864 122 73 C121.505 74.485 121.505 74.485 121 76 C119.09936523 76.94799805 119.09936523 76.94799805 116.55859375 77.76171875 C115.59743652 78.07230225 114.6362793 78.38288574 113.64599609 78.70288086 C112.58719238 79.02780518 111.52838867 79.35272949 110.4375 79.6875 C109.34518066 80.02982666 108.25286133 80.37215332 107.12744141 80.72485352 C97.78409481 83.58784269 88.35373746 86.0682587 78.875 88.4375 C78.18373016 88.61066742 77.49246033 88.78383484 76.78024292 88.96224976 C70.2125312 90.5982438 63.72247391 92.12085799 57 93 C56.74347656 92.37738281 56.48695313 91.75476563 56.22265625 91.11328125 C55.11215208 88.43236714 53.99174391 85.75573915 52.86865234 83.08007812 C52.26087221 81.62468557 51.65738223 80.16749737 51.05712891 78.70898438 C39.5046399 50.66014643 25.33080917 22.18820519 1.58203125 2.390625 C0.79892578 1.70226562 0.79892578 1.70226562 0 1 C0 0.67 0 0.34 0 0 Z " fill="#000000" transform="translate(310,29)"/>
<path d="M0 0 C0.88452148 1.64453125 0.88452148 1.64453125 1.62109375 3.8125 C1.91032715 4.62823486 2.19956055 5.44396973 2.49755859 6.28442383 C2.80773926 7.18056396 3.11791992 8.0767041 3.4375 9 C15.10089309 41.00632692 31.85679785 68.07352318 56 92 C18.85088248 89.02084841 -19.89580476 63.48566015 -46.39453125 38.453125 C-48.60731071 36.36972845 -50.86248316 34.39252399 -53.1875 32.4375 C-57.89654765 28.37284835 -61.92589031 23.68711231 -66 19 C-65.505 17.515 -65.505 17.515 -65 16 C-62.85571289 14.96020508 -62.85571289 14.96020508 -59.97265625 14.01953125 C-58.885896 13.66358887 -57.79913574 13.30764648 -56.67944336 12.94091797 C-55.48585205 12.56854004 -54.29226074 12.19616211 -53.0625 11.8125 C-51.83732666 11.42465332 -50.61215332 11.03680664 -49.34985352 10.63720703 C-39.15024327 7.46516871 -28.82848319 4.83778939 -18.4375 2.375 C-17.68663116 2.195065 -16.93576233 2.01513 -16.16213989 1.82974243 C-14.02570627 1.32144149 -11.88678088 0.82598027 -9.74609375 0.3359375 C-8.51560303 0.05282715 -7.2851123 -0.2302832 -6.01733398 -0.52197266 C-3 -1 -3 -1 0 0 Z " fill="#000000" transform="translate(146,391)"/>
</svg>
