<?xml version="1.0" encoding="UTF-8"?>
<svg version="1.1" xmlns="http://www.w3.org/2000/svg" width="512" height="512">
<path d="M0 0 C0.66 0 1.32 0 2 0 C2.34329346 0.71687988 2.68658691 1.43375977 3.0402832 2.17236328 C13.56575859 24.10795074 24.40080857 45.8844582 35.3293457 67.62158203 C35.88622574 68.7317569 36.44310577 69.84193176 37.01686096 70.98574829 C38.11611529 73.17465392 39.2191117 75.36168472 40.32603455 77.54672241 C42.93442717 82.72534992 45.43421308 87.91375911 47.72753906 93.24023438 C48.15720978 94.21631653 48.58688049 95.19239868 49.02957153 96.19805908 C49.82276204 98.01762593 50.58897216 99.84930423 51.32174683 101.69403076 C51.67592682 102.499151 52.03010681 103.30427124 52.39501953 104.13378906 C52.6832962 104.836026 52.97157288 105.53826294 53.26858521 106.26177979 C56.20545805 109.21019617 59.99873202 109.36431273 64 110 C64.8486412 110.13836399 65.69728241 110.27672798 66.57164001 110.41928482 C69.40713603 110.85967672 72.24597283 111.26551928 75.08764648 111.6640625 C76.1586409 111.8171991 77.22963531 111.97033569 78.33308411 112.12811279 C80.64251197 112.45802219 82.95215545 112.7864251 85.2619915 113.11346436 C88.91417353 113.63110591 92.56558305 114.15390412 96.21681213 114.67822266 C106.59225917 116.16753116 116.96865876 117.65005763 127.34643555 119.12304688 C133.70554426 120.02600852 140.06345513 120.9370251 146.42067146 121.85321045 C148.8440244 122.20079353 151.26782919 122.54524084 153.69207573 122.88653564 C157.06855847 123.36209101 160.44342971 123.84781612 163.81811523 124.3359375 C164.82536652 124.47521667 165.8326178 124.61449585 166.87039185 124.75799561 C167.78569168 124.89248108 168.70099152 125.02696655 169.64402771 125.16552734 C170.44167258 125.27907562 171.23931746 125.3926239 172.06113338 125.50961304 C174 126 174 126 176 128 C172.16216306 131.86276294 168.32089514 135.72207083 164.4765625 139.57836914 C163.17225416 140.88767174 161.86884892 142.19787469 160.56640625 143.5090332 C158.68212249 145.40559948 156.79449389 147.29878363 154.90625 149.19140625 C154.33507446 149.76774307 153.76389893 150.3440799 153.17541504 150.93788147 C150.21863242 153.89506291 147.20258844 156.72711879 144.03710938 159.46069336 C140.00695992 162.94752492 136.24234047 166.64614363 132.5 170.4375 C131.4800293 171.46315063 131.4800293 171.46315063 130.43945312 172.50952148 C128.29049074 174.67057055 126.14482721 176.83484726 124 179 C121.16966163 181.85716017 118.33587327 184.71083454 115.5 187.5625 C114.86642578 188.20437256 114.23285156 188.84624512 113.58007812 189.50756836 C108.30704517 194.80895839 102.75673511 199.72004743 96.99609375 204.484375 C96.15175781 205.23203125 95.30742187 205.9796875 94.4375 206.75 C93.56996094 207.48734375 92.70242188 208.2246875 91.80859375 208.984375 C87.78575074 215.69200957 91.45474118 226.37024394 92.76586914 233.80810547 C92.94157944 234.82580521 93.11728973 235.84350494 93.29832458 236.89204407 C93.6767035 239.08028969 94.05706958 241.26819249 94.43925667 243.45577621 C95.04414358 246.91863826 95.64353542 250.38241307 96.24156189 253.84646606 C97.510361 261.19015481 98.78599153 268.53264798 100.0625 275.875 C101.54574028 284.40755608 103.02616399 292.94058255 104.4996624 301.47482681 C105.09010742 304.88607474 105.68558453 308.29641964 106.28126526 311.70675659 C106.64226259 313.79388279 107.00302856 315.88104902 107.36352539 317.96826172 C107.53026764 318.91483139 107.69700989 319.86140106 107.86880493 320.83665466 C108.01881454 321.7111174 108.16882416 322.58558014 108.32337952 323.48654175 C108.45481889 324.24195189 108.58625826 324.99736202 108.72168064 325.77566338 C109.02550096 328.2038044 109.04661074 330.55541855 109 333 C103.09297127 331.32634186 97.89788169 328.48294121 92.5 325.625 C91.47664551 325.0875415 90.45329102 324.55008301 89.39892578 323.99633789 C82.85212064 320.54558613 76.35524573 317.01116952 69.875 313.4375 C58.19633839 307.00238598 46.32405039 300.94724192 34.44482422 294.89331055 C21.05619415 288.06599871 21.05619415 288.06599871 14.57421875 284.5234375 C13.69016357 284.04213379 12.8061084 283.56083008 11.89526367 283.06494141 C10.36123811 282.22279874 8.83336068 281.36929721 7.3137207 280.50146484 C3.31910513 278.31232244 1.35122795 277.76375332 -3 279 C-4.64491626 279.73090498 -6.26204648 280.5264575 -7.8515625 281.37109375 C-9.23637817 282.10066284 -9.23637817 282.10066284 -10.64916992 282.8449707 C-11.63119385 283.37050537 -12.61321777 283.89604004 -13.625 284.4375 C-14.65407471 284.98172607 -15.68314941 285.52595215 -16.7434082 286.08666992 C-18.84572349 287.19883842 -20.9467239 288.31349605 -23.04638672 289.43066406 C-25.61107302 290.7933524 -28.18027767 292.14649212 -30.75390625 293.4921875 C-37.60554445 297.07605186 -44.4383804 300.69265437 -51.24609375 304.359375 C-63.74715333 311.091894 -76.27870534 317.75709448 -88.89007568 324.28097534 C-90.37600381 325.04991078 -91.86123833 325.82018812 -93.34576416 326.59182739 C-95.41844544 327.66834284 -97.49388767 328.73932069 -99.5703125 329.80859375 C-100.50423828 330.2949379 -100.50423828 330.2949379 -101.45703125 330.79110718 C-105.77062742 333 -105.77062742 333 -108 333 C-104.91115125 313.57807795 -101.7202784 294.17795242 -98.31640625 274.80859375 C-98.00535001 273.03440236 -97.69434543 271.2602019 -97.38339233 269.48599243 C-96.11978519 262.28177861 -94.85415619 255.07794303 -93.57641602 247.8762207 C-92.77791642 243.37387215 -91.98735444 238.87019236 -91.20203972 234.3655262 C-90.90559822 232.67410849 -90.60617212 230.98321089 -90.30362129 229.29287529 C-89.8870249 226.96399502 -89.48055265 224.63355999 -89.07641602 222.30249023 C-88.95133667 221.61759018 -88.82625732 220.93269012 -88.6973877 220.22703552 C-88.13215346 216.90351422 -87.67704675 214.16366352 -89 211 C-91.25584951 208.60221991 -91.25584951 208.60221991 -94.140625 206.171875 C-98.99570355 201.86955961 -103.66490424 197.43277586 -108.234375 192.828125 C-108.84873413 192.21038208 -109.46309326 191.59263916 -110.09606934 190.95617676 C-111.98280903 189.05618215 -113.86684386 187.15354607 -115.75 185.25 C-118.26259075 182.71050922 -120.77870617 180.1745833 -123.296875 177.640625 C-123.85227966 177.076922 -124.40768433 176.51321899 -124.97991943 175.93243408 C-127.87970876 173.01494798 -130.84384851 170.2320818 -133.95727539 167.54272461 C-137.94913672 164.08952409 -141.68064793 160.4313669 -145.38671875 156.67578125 C-146.05161819 156.00709518 -146.71651764 155.33840912 -147.40156555 154.64945984 C-149.49935735 152.53958511 -151.59383803 150.42647236 -153.6875 148.3125 C-156.45931253 145.51400183 -159.23448585 142.71889914 -162.01171875 139.92578125 C-162.95249519 138.9725573 -162.95249519 138.9725573 -163.91227722 138.00007629 C-166.50757397 135.39035794 -169.0369888 132.97093232 -171.93676758 130.69213867 C-172.61763428 130.13373291 -173.29850098 129.57532715 -174 129 C-174 128.34 -174 127.68 -174 127 C-167.33315162 125.43440744 -160.68921601 124.27609243 -153.91235352 123.30419922 C-152.8413591 123.14785004 -151.77036469 122.99150085 -150.66691589 122.83041382 C-147.15471484 122.31855279 -143.64183484 121.81152928 -140.12890625 121.3046875 C-137.68029645 120.94907676 -135.23172418 120.59320743 -132.78318787 120.23709106 C-127.667037 119.49370811 -122.55056858 118.75256489 -117.43383789 118.01318359 C-110.8636103 117.06371162 -104.29400734 116.1099985 -97.72461033 115.15479851 C-92.6763571 114.42100886 -87.62788277 113.68875062 -82.57932854 112.95703506 C-80.15548075 112.60567785 -77.73167923 112.25400128 -75.30792427 111.90200424 C-71.93278694 111.41221406 -68.55738132 110.92431926 -65.18188477 110.43701172 C-64.17463348 110.29054199 -63.1673822 110.14407227 -62.12960815 109.99316406 C-60.7566584 109.79555984 -60.7566584 109.79555984 -59.35597229 109.59396362 C-58.55832742 109.47857176 -57.76068254 109.36317989 -56.93886662 109.24429131 C-55 109 -55 109 -53 109 C-52.73372803 108.14075928 -52.46745605 107.28151855 -52.19311523 106.39624023 C-50.99305015 102.98021704 -49.54882273 99.88713172 -47.91015625 96.66015625 C-47.60613388 96.05731308 -47.30211151 95.45446991 -46.98887634 94.83335876 C-46.01725246 92.90777071 -45.0403632 90.98492605 -44.0625 89.0625 C-39.53474215 80.14311297 -35.11414132 71.18314075 -30.8203125 62.1484375 C-24.65969151 49.19831286 -18.24553485 36.37891907 -11.8125 23.5625 C-10.65801239 21.25855911 -9.50371465 18.95452306 -8.34960938 16.65039062 C-5.5685823 11.09916751 -2.78525935 5.54910073 0 0 Z " fill="#000000" transform="translate(257,73)"/>
<path d="M0 0 C0.91297852 0.16628906 1.82595703 0.33257812 2.76660156 0.50390625 C44.3986228 8.16363077 83.16052206 26.40624883 116 53 C116.54446777 53.44005371 117.08893555 53.88010742 117.64990234 54.33349609 C131.72173929 65.81174863 144.93680647 78.57719064 156 93 C156.75925781 93.93070312 157.51851563 94.86140625 158.30078125 95.8203125 C184.1596216 128.07168914 200.62794761 167.52514646 208 208 C208.16371094 208.83563477 208.32742188 209.67126953 208.49609375 210.53222656 C213.76810464 238.14492821 213.55644657 270.45958544 208 298 C207.82307617 298.90186035 207.64615234 299.8037207 207.46386719 300.73291016 C202.19592242 326.98619964 193.50980755 351.34465978 181 375 C180.65888184 375.65033203 180.31776367 376.30066406 179.96630859 376.97070312 C171.48235685 393.01394676 161.00686611 407.42384744 149 421 C148.27554687 421.8353125 147.55109375 422.670625 146.8046875 423.53125 C137.0599286 434.60647413 126.66037586 444.95114912 115 454 C114.06542969 454.763125 113.13085938 455.52625 112.16796875 456.3125 C102.37943247 464.15338144 91.78248792 470.62186966 81 477 C80.34837891 477.38929688 79.69675781 477.77859375 79.02539062 478.1796875 C53.39799037 493.3115154 23.3544143 502.68826154 -6 507 C-7.20462891 507.17732666 -8.40925781 507.35465332 -9.65039062 507.53735352 C-21.30767354 509.136325 -32.87186098 509.3584053 -44.625 509.3125 C-46.07983292 509.30976578 -46.07983292 509.30976578 -47.5640564 509.30697632 C-61.91321045 509.26159053 -75.88280259 508.76572938 -90 506 C-90.91297852 505.83371094 -91.82595703 505.66742188 -92.76660156 505.49609375 C-134.3986228 497.83636923 -173.16052206 479.59375117 -206 453 C-206.54446777 452.55994629 -207.08893555 452.11989258 -207.64990234 451.66650391 C-221.72173929 440.18825137 -234.93680647 427.42280936 -246 413 C-246.75925781 412.06929688 -247.51851562 411.13859375 -248.30078125 410.1796875 C-280.2851447 370.28850374 -300.93384999 316.53121826 -301.203125 265.20703125 C-301.21013931 264.30644485 -301.21715363 263.40585846 -301.22438049 262.47798157 C-301.24177809 259.58943619 -301.24823227 256.70109584 -301.25 253.8125 C-301.25101212 252.33194122 -301.25101212 252.33194122 -301.25204468 250.82147217 C-301.23631228 236.35031441 -300.87100014 222.23005389 -298 208 C-297.82307617 207.09813965 -297.64615234 206.1962793 -297.46386719 205.26708984 C-292.19592242 179.01380036 -283.50980755 154.65534022 -271 131 C-270.65888184 130.34966797 -270.31776367 129.69933594 -269.96630859 129.02929688 C-261.48235685 112.98605324 -251.00686611 98.57615256 -239 85 C-238.27554688 84.1646875 -237.55109375 83.329375 -236.8046875 82.46875 C-227.0599286 71.39352587 -216.66037586 61.04885088 -205 52 C-204.06542969 51.236875 -203.13085938 50.47375 -202.16796875 49.6875 C-169.90395064 23.84315173 -130.47895618 7.37279964 -90 0 C-89.16436523 -0.16371094 -88.32873047 -0.32742188 -87.46777344 -0.49609375 C-59.75836479 -5.78656862 -27.64906696 -5.41678597 0 0 Z M-201 82 C-202.16402344 82.97646484 -202.16402344 82.97646484 -203.3515625 83.97265625 C-207.32858259 87.34314239 -210.81588282 90.89273795 -214.1796875 94.875 C-215.40092463 96.30065021 -216.657291 97.69688685 -217.9453125 99.0625 C-230.81329617 112.73770036 -241.23912598 128.44135032 -250 145 C-250.42764648 145.80598633 -250.85529297 146.61197266 -251.29589844 147.44238281 C-268.3011629 180.0240061 -276.46068137 215.70585908 -276.375 252.3125 C-276.37368576 253.69137894 -276.37368576 253.69137894 -276.37234497 255.09811401 C-276.29524576 279.72957743 -272.52577638 302.50184974 -265 326 C-264.76587402 326.73686035 -264.53174805 327.4737207 -264.29052734 328.23291016 C-257.84839539 347.99230967 -248.02971566 367.09148888 -236 384 C-235.24074219 385.07121094 -234.48148438 386.14242188 -233.69921875 387.24609375 C-228.16458541 394.80583271 -222.11374743 401.90916965 -216 409 C-215.02353516 410.16402344 -215.02353516 410.16402344 -214.02734375 411.3515625 C-210.65685761 415.32858259 -207.10726205 418.81588282 -203.125 422.1796875 C-201.69934979 423.40092463 -200.30311315 424.657291 -198.9375 425.9453125 C-185.26229964 438.81329617 -169.55864968 449.23912598 -153 458 C-152.19401367 458.42764648 -151.38802734 458.85529297 -150.55761719 459.29589844 C-117.97396253 476.30222313 -82.29548641 484.45698413 -45.6875 484.375 C-44.76924438 484.37445618 -43.85098877 484.37391235 -42.90490723 484.37335205 C14.17818846 484.21859156 69.89205913 462.87487449 111.44921875 423.375 C114 421 114 421 116.6328125 418.91015625 C118.75941901 417.19413218 120.43640829 415.52170427 122.1875 413.4375 C124.1512211 411.12748829 126.12644722 408.86686245 128.21484375 406.66796875 C166.6439551 366.12120783 186.50438073 308.96432158 186.375 253.6875 C186.37412384 252.76824738 186.37324768 251.84899475 186.37234497 250.90188599 C186.29524576 226.27042257 182.52577638 203.49815026 175 180 C174.76587402 179.26313965 174.53174805 178.5262793 174.29052734 177.76708984 C167.84839539 158.00769033 158.02971566 138.90851112 146 122 C145.24074219 120.92878906 144.48148437 119.85757813 143.69921875 118.75390625 C138.16458541 111.19416729 132.11374743 104.09083035 126 97 C125.34902344 96.22398438 124.69804687 95.44796875 124.02734375 94.6484375 C120.65685761 90.67141741 117.10726205 87.18411718 113.125 83.8203125 C111.69934979 82.59907537 110.30311315 81.342709 108.9375 80.0546875 C95.26229964 67.18670383 79.55864968 56.76087402 63 48 C62.19401367 47.57235352 61.38802734 47.14470703 60.55761719 46.70410156 C27.97396253 29.69777687 -7.70451359 21.54301587 -44.3125 21.625 C-45.68988342 21.62581573 -45.68988342 21.62581573 -47.09509277 21.62664795 C-105.61939801 21.78531576 -157.0672192 44.12094884 -201 82 Z " fill="#000000" transform="translate(301,3)"/>
</svg>
