<?xml version="1.0" encoding="UTF-8"?>
<svg version="1.1" xmlns="http://www.w3.org/2000/svg" width="512" height="512">
<path d="M0 0 C1.36956694 -0.00657338 1.36956694 -0.00657338 2.76680189 -0.01327956 C5.83343338 -0.02665875 8.90003612 -0.03284454 11.96669006 -0.03897095 C14.16290924 -0.04687279 16.35912711 -0.05514179 18.55534363 -0.06375122 C25.77586121 -0.08996816 32.99638458 -0.10528143 40.2169342 -0.11953735 C42.70423956 -0.12489771 45.19154489 -0.13027522 47.67885017 -0.13566971 C58.02877138 -0.15730051 68.37869102 -0.17603544 78.72862911 -0.1872921 C81.4132888 -0.19022155 84.09794844 -0.19318324 86.78260803 -0.19619751 C87.44982431 -0.19694356 88.1170406 -0.19768961 88.80447555 -0.19845827 C99.5978522 -0.21109492 110.39106348 -0.2442963 121.18436294 -0.28599934 C132.28013936 -0.32851741 143.37584721 -0.35159169 154.47170645 -0.35721266 C160.69568312 -0.36086024 166.91937958 -0.37281851 173.14327812 -0.4053154 C179.00466098 -0.43547997 184.86559533 -0.44167769 190.72703934 -0.42993164 C192.87113813 -0.42971159 195.01525824 -0.43795936 197.15928459 -0.45558548 C214.32716575 -0.58896885 226.94157857 1.3872319 239.7716217 13.8062439 C247.68733053 22.3231458 251.37391418 32.85532966 251.33201599 44.29858398 C251.3365471 45.20995947 251.34107822 46.12133496 251.34574664 47.06032789 C251.35839045 50.10931131 251.35677025 53.15811609 251.3551178 56.2071228 C251.36110318 58.39540842 251.36790874 60.58369193 251.37547302 62.77197266 C251.39314227 68.71439362 251.39782888 74.65675698 251.3991046 80.59920168 C251.40052658 84.31436416 251.40479714 88.02951202 251.41009903 91.74467087 C251.42764956 104.04404789 251.43693889 116.34338973 251.43543808 128.64277942 C251.43535817 129.30532133 251.43527826 129.96786324 251.43519592 130.65048218 C251.43511416 131.31383915 251.4350324 131.97719613 251.43494816 132.66065483 C251.4341361 143.39959395 251.45325444 154.13839253 251.48147266 164.87729104 C251.51025872 175.9200314 251.52364417 186.96269997 251.5222851 198.00547826 C251.52177604 204.1985976 251.52742817 210.39155798 251.5486412 216.58464432 C251.56806277 222.41401076 251.56812104 228.24306729 251.55360794 234.07244492 C251.55152341 236.20566513 251.55619937 238.33890493 251.56832886 240.47209167 C251.65487148 256.75379176 250.34980852 269.48721573 239.06459045 282.15390015 C231.38422854 289.62091867 222.02440576 295.05299937 211.11349487 295.21118164 C209.48098029 295.18613897 207.84854252 295.15575003 206.21620178 295.1211853 C204.36512267 295.09176814 202.51403246 295.06304281 200.66293335 295.03491211 C199.68303247 295.01888569 198.7031316 295.00285927 197.69353676 294.9863472 C191.4045221 294.89679889 185.11482758 294.87855072 178.82529163 294.85000038 C173.30146016 294.82090993 167.78046953 294.76480485 162.25770569 294.6499939 C156.90939094 294.54022353 151.56503008 294.50413104 146.21565819 294.51749802 C144.18253142 294.50952501 142.14932336 294.47512924 140.11712074 294.41331863 C129.64474549 293.70272192 129.64474549 293.70272192 120.38245773 297.59557343 C117.50861511 301.14545177 115.74543677 305.03613895 114.00115013 309.22452927 C104.12313634 329.57384883 79.50231243 343.73351286 59.06459045 351.15390015 C49.45231935 354.47892961 38.25631568 358.02862972 28.56459045 353.52890015 C23.94151306 349.13697662 21.85350462 346.28961889 21.61048889 339.88290405 C21.61111823 337.79864961 21.63348295 335.714324 21.67396545 333.63046265 C21.67962524 332.52915009 21.68528503 331.42783752 21.69111633 330.29315186 C21.71344304 326.78795251 21.76363473 323.28378869 21.81459045 319.77890015 C21.83466015 317.39740453 21.85291009 315.01589283 21.86927795 312.6343689 C21.91329571 306.8071948 21.98017157 300.98062147 22.06459045 295.15390015 C21.21864319 295.17484741 20.37269592 295.19579468 19.50111389 295.21737671 C16.30291423 295.28635235 13.10509883 295.33608315 9.90638733 295.37362671 C8.53321201 295.39349993 7.16011849 295.42060873 5.7872467 295.45565796 C-9.27665827 295.83005326 -20.70301974 292.65210389 -31.9002533 282.3453064 C-40.37061986 273.43010658 -44.08229033 263.27489927 -44.08930969 251.2184906 C-44.09369195 250.30544598 -44.0980742 249.39240135 -44.10258925 248.45168871 C-44.11596844 245.38505723 -44.12215423 242.31845448 -44.12828064 239.25180054 C-44.13618248 237.05558136 -44.14445148 234.85936349 -44.15306091 232.66314697 C-44.17927785 225.44262939 -44.19459112 218.22210602 -44.20884705 211.0015564 C-44.2142074 208.51425104 -44.21958492 206.02694571 -44.2249794 203.53964043 C-44.2466102 193.18971922 -44.26534513 182.83979958 -44.27660179 172.48986149 C-44.27953124 169.8052018 -44.28249293 167.12054216 -44.2855072 164.43588257 C-44.28625325 163.76866629 -44.2869993 163.10145 -44.28776796 162.41401505 C-44.30040461 151.6206384 -44.333606 140.82742712 -44.37530904 130.03412766 C-44.41782711 118.93835124 -44.44090138 107.84264339 -44.44652236 96.74678415 C-44.45016993 90.52280748 -44.4621282 84.29911102 -44.49462509 78.07521248 C-44.52478966 72.21382962 -44.53098738 66.35289527 -44.51924133 60.49145126 C-44.51902128 58.34735247 -44.52726905 56.20323236 -44.54489517 54.05920601 C-44.67877285 36.82770216 -42.63127052 24.45718038 -30.3533783 11.48202515 C-21.74320592 3.35368724 -11.54987897 0.00672445 0 0 Z M91.25209045 79.21640015 C88.87146055 83.10058577 88.95801942 86.39022609 89.00209045 90.84140015 C89.01111389 92.02089233 89.02013733 93.20038452 89.0294342 94.4156189 C89.04103577 95.31925171 89.05263733 96.22288452 89.06459045 97.15390015 C88.45151031 97.1450177 87.83843018 97.13613525 87.20677185 97.12698364 C80.81523478 97.03836332 74.42387279 96.97810484 68.03187561 96.93417358 C65.64768889 96.91408121 63.2635513 96.88680233 60.87953186 96.85214233 C57.44890707 96.80352156 54.0189349 96.78090703 50.58802795 96.76327515 C49.5253067 96.74263 48.46258545 96.72198486 47.36766052 96.70071411 C41.25419907 96.69886817 37.70417402 97.05076552 33.06459045 101.15390015 C29.64521927 105.11317205 28.43396584 108.08146308 28.7559967 113.2046814 C29.37896055 117.13960495 30.58603636 119.8805481 33.64076233 122.51132202 C39.3096554 126.40173884 43.8067723 126.78562847 50.56459045 126.46640015 C51.9413092 126.43256226 51.9413092 126.43256226 53.34584045 126.39804077 C55.58718409 126.33967245 57.82497872 126.25788212 60.06459045 126.15390015 C60.07877014 126.88350952 60.09294983 127.6131189 60.1075592 128.36483765 C61.05761888 149.16344144 69.53859935 167.15306327 81.06459045 184.15390015 C78.76479999 184.85337559 76.4630906 185.54511007 74.15834045 186.2281189 C72.04894502 186.8593395 69.94487462 187.50856742 67.84584045 188.1734314 C61.44225358 190.1341627 55.3297395 191.47617585 48.68959045 192.15390015 C41.74250595 192.88234993 36.10653933 193.91569651 31.12709045 199.21640015 C28.84429548 203.37914393 28.4379336 207.50251757 29.06459045 212.15390015 C31.47170101 216.96812126 34.16049649 219.916945 39.06459045 222.15390015 C58.84149957 225.0949276 82.63999246 216.55932198 99.33021545 206.3765564 C102.6341326 204.89923344 103.68494563 204.95123375 107.06459045 206.15390015 C109.55989914 207.35930886 111.99655894 208.60195903 114.43959045 209.90390015 C130.52392807 218.16577008 149.76544747 224.31962319 168.06459045 222.15390015 C172.99162868 219.94522784 175.65332705 216.97642696 178.06459045 212.15390015 C178.71960447 206.99566481 178.43176631 203.17206512 175.48085022 198.79721069 C170.62892242 193.16743548 163.07547237 192.46889738 156.12709045 191.77890015 C147.2974371 190.73444829 139.50186497 188.59213851 131.2403717 185.3609314 C128.31924142 184.03547413 128.31924142 184.03547413 126.06459045 184.15390015 C126.70525452 183.19612671 127.34591858 182.23835327 128.0059967 181.2515564 C138.6687671 164.98245927 147.71835946 146.08077948 147.06459045 126.15390015 C148.34334045 126.2003064 149.62209045 126.24671265 150.93959045 126.29452515 C152.64790024 126.33207042 154.35623554 126.3684676 156.06459045 126.40390015 C157.32335999 126.45417358 157.32335999 126.45417358 158.6075592 126.50546265 C164.54634594 126.59753686 169.17462909 125.67746327 174.06459045 122.15390015 C176.96728353 118.77626642 178.29203376 115.54599865 178.56459045 111.09140015 C177.89096505 105.78660005 175.98601204 102.84242214 172.00209045 99.34140015 C168.69733434 97.31590447 166.00934669 97.03064885 162.22596741 97.04037476 C161.24517715 97.04045029 160.2643869 97.04052582 159.25387573 97.04060364 C157.66937874 97.04834557 157.66937874 97.04834557 156.0528717 97.0562439 C154.96951035 97.05765884 153.88614899 97.05907379 152.7699585 97.06053162 C149.3056412 97.06613455 145.84138825 97.07868757 142.37709045 97.09140015 C140.03008618 97.09641477 137.68308089 97.10097774 135.33607483 97.10507202 C129.57889137 97.11610494 123.82174551 97.13284594 118.06459045 97.15390015 C118.07836731 96.25679321 118.09214417 95.35968628 118.1063385 94.43539429 C118.1224115 92.67376953 118.1224115 92.67376953 118.1388092 90.8765564 C118.15258606 89.71132446 118.16636292 88.54609253 118.18055725 87.34555054 C118.04128235 83.51241199 117.3581982 81.23840711 115.06459045 78.15390015 C110.40944499 73.95291522 107.53423087 72.79953924 101.38490295 72.8687439 C96.90688135 73.41907315 94.13746358 75.93304452 91.25209045 79.21640015 Z " fill="#000000" transform="translate(43.93540954589844,-0.153900146484375)"/>
<path d="M0 0 C4.6230774 4.39192353 6.71108584 7.23928125 6.95410156 13.64599609 C6.95347223 15.73025054 6.9311075 17.81457615 6.890625 19.8984375 C6.88496521 20.99975006 6.87930542 22.10106262 6.87347412 23.23574829 C6.85114742 26.74094763 6.80095572 30.24511146 6.75 33.75 C6.72993031 36.13149562 6.71168036 38.51300731 6.6953125 40.89453125 C6.65129474 46.72170535 6.58441888 52.54827868 6.5 58.375 C7.7689209 58.3435791 7.7689209 58.3435791 9.06347656 58.31152344 C12.26167622 58.2425478 15.45949163 58.192817 18.65820312 58.15527344 C20.03137844 58.13540022 21.40447196 58.10829142 22.77734375 58.07324219 C37.84124872 57.69884689 49.26761019 60.87679626 60.46484375 71.18359375 C68.93521031 80.09879357 72.64688078 90.25400088 72.65390015 102.31040955 C72.6582824 103.22345417 72.66266465 104.1364988 72.6671797 105.07721144 C72.6805589 108.14384292 72.68674468 111.21044567 72.69287109 114.27709961 C72.70077293 116.47331878 72.70904193 118.66953666 72.71765137 120.86575317 C72.7438683 128.08627076 72.75918157 135.30679413 72.7734375 142.52734375 C72.77879786 145.01464911 72.78417537 147.50195443 72.78956985 149.98925972 C72.81120066 160.33918092 72.82993559 170.68910057 72.84119225 181.03903866 C72.84412169 183.72369834 72.84708339 186.40835799 72.85009766 189.09301758 C72.85084371 189.76023386 72.85158976 190.42745014 72.85235842 191.1148851 C72.86499507 201.90826175 72.89819645 212.70147303 72.93989949 223.49477249 C72.98241756 234.59054891 73.00549183 245.68625675 73.01111281 256.782116 C73.01476039 263.00609266 73.02671865 269.22978912 73.05921555 275.45368767 C73.08938011 281.31507053 73.09557784 287.17600488 73.08383179 293.03744888 C73.08361174 295.18154768 73.0918595 297.32566778 73.10948563 299.46969414 C73.2433633 316.70119799 71.19586097 329.07171976 58.91796875 342.046875 C50.30779638 350.17521291 40.11446943 353.52217569 28.56459045 353.52890015 C27.65154583 353.5332824 26.7385012 353.53766465 25.79778856 353.5421797 C22.73115708 353.5555589 19.66455433 353.56174468 16.59790039 353.56787109 C14.40168122 353.57577293 12.20546334 353.58404193 10.00924683 353.59265137 C2.78872924 353.6188683 -4.43179413 353.63418157 -11.65234375 353.6484375 C-14.13964911 353.65379786 -16.62695443 353.65917537 -19.11425972 353.66456985 C-29.46418092 353.68620066 -39.81410057 353.70493559 -50.16403866 353.71619225 C-52.84869834 353.71912169 -55.53335799 353.72208339 -58.21801758 353.72509766 C-58.88523386 353.72584371 -59.55245014 353.72658976 -60.2398851 353.72735842 C-71.03326175 353.73999507 -81.82647303 353.77319645 -92.61977249 353.81489949 C-103.71554891 353.85741756 -114.81125675 353.88049183 -125.907116 353.88611281 C-132.13109266 353.88976039 -138.35478912 353.90171865 -144.57868767 353.93421555 C-150.44007053 353.96438011 -156.30100488 353.97057784 -162.16244888 353.95883179 C-164.30654768 353.95861174 -166.45066778 353.9668595 -168.59469414 353.98448563 C-185.76257529 354.117869 -198.37698812 352.14166825 -211.20703125 339.72265625 C-218.17595511 332.22444703 -222.75732309 322.08475978 -222.74050903 311.84500122 C-222.74325836 310.54938766 -222.74600769 309.25377411 -222.74884033 307.91889954 C-222.74176338 306.49557401 -222.73449378 305.07224944 -222.72705078 303.64892578 C-222.72648625 302.14067085 -222.72680404 300.63241538 -222.72793579 299.12416077 C-222.72850868 295.03988717 -222.71676473 290.95573148 -222.70278788 286.87148523 C-222.69026987 282.59937802 -222.68910917 278.32726799 -222.68673706 274.05514526 C-222.68052544 265.96985373 -222.66411892 257.8846164 -222.64403808 249.79934871 C-222.62166919 240.5926209 -222.61068316 231.38589047 -222.60064721 222.17914224 C-222.57975242 203.24439745 -222.54458261 184.30970309 -222.5 165.375 C-221.24566162 165.3656543 -219.99132324 165.35630859 -218.69897461 165.34667969 C-213.97402483 165.30632603 -209.24969565 165.24044938 -204.52514648 165.16748047 C-202.49365304 165.13953077 -200.4620561 165.11818924 -198.43041992 165.10400391 C-183.17107287 164.99116673 -169.12850024 163.96280338 -155.3125 156.8125 C-154.65451416 156.47734375 -153.99652832 156.1421875 -153.31860352 155.796875 C-146.35062744 152.05314 -140.95605784 147.03220283 -135.5 141.375 C-134.50419922 140.42560547 -134.50419922 140.42560547 -133.48828125 139.45703125 C-129.52129378 135.41872715 -126.9005448 130.79885551 -124.3125 125.8125 C-123.99120117 125.20639893 -123.66990234 124.60029785 -123.33886719 123.97583008 C-116.24329247 109.57005235 -115.8598209 95.16615094 -115.75 79.4375 C-115.72177564 77.38604327 -115.69183946 75.33460935 -115.66015625 73.28320312 C-115.58706877 68.313844 -115.53702816 63.34475324 -115.5 58.375 C-114.4761319 58.42706352 -114.4761319 58.42706352 -113.43157959 58.48017883 C-102.08387842 59.58612634 -102.08387842 59.58612634 -91.75195312 56.06494141 C-88.9266753 52.58312875 -87.28234983 48.48548952 -85.50146484 44.40283203 C-83.85105042 41.06096412 -81.56893277 38.35406114 -79.125 35.5625 C-78.42600586 34.76283813 -78.42600586 34.76283813 -77.71289062 33.94702148 C-62.5512237 16.98451341 -24.55627652 -11.40112838 0 0 Z M-85.5 135.375 C-90.1076097 142.17949016 -93.74566948 149.58316669 -97.39770508 156.92749023 C-98.23054016 158.59031288 -98.23054016 158.59031288 -99.0802002 160.28672791 C-100.58488365 163.29304997 -102.08601434 166.30109216 -103.58539033 169.31006122 C-105.161096 172.4703294 -106.74107818 175.62845859 -108.32048035 178.78688049 C-110.96662941 184.08011099 -113.60969425 189.37487204 -116.25073242 194.6706543 C-119.30326802 200.79150827 -122.36002651 206.91023821 -125.41916925 213.02779239 C-128.68387289 219.55652471 -131.94553218 226.08677436 -135.20628905 232.61747861 C-136.14427054 234.49557174 -137.08281945 236.37338038 -138.02149391 238.25112724 C-139.76649063 241.74231044 -141.50807682 245.23518842 -143.24926758 248.72827148 C-144.0292234 250.28750336 -144.0292234 250.28750336 -144.82493591 251.87823486 C-145.2972464 252.82712082 -145.76955688 253.77600677 -146.25617981 254.75364685 C-146.66780271 255.57856849 -147.0794256 256.40349012 -147.50352192 257.25340939 C-149.54341426 261.59652192 -150.13925342 265.63011897 -149.5 270.375 C-147.10160527 275.17178945 -144.31721665 278.01183712 -139.5 280.375 C-134.57226627 281.33716699 -131.59143212 280.95726517 -127.1171875 278.5703125 C-122.09944307 274.77947313 -119.77597726 269.21318833 -117.0625 263.6875 C-116.52173828 262.62982422 -115.98097656 261.57214844 -115.42382812 260.48242188 C-112.64595195 255.65409003 -112.64595195 255.65409003 -111.5 250.375 C-87.41 250.705 -63.32 251.035 -38.5 251.375 C-34.54 259.295 -30.58 267.215 -26.5 275.375 C-19.75088794 280.57006707 -19.75088794 280.57006707 -12.640625 280.79296875 C-7.85732355 279.85900296 -5.21559195 277.20358015 -2.125 273.625 C-0.16224624 269.69949247 0.14229448 266.64470271 -0.5 262.375 C-1.77787874 258.72450293 -3.49049209 255.3392969 -5.2487793 251.89892578 C-5.99230793 250.39671321 -5.99230793 250.39671321 -6.75085735 248.86415291 C-7.79794774 246.75163391 -8.85170866 244.64240956 -9.91173935 242.53635406 C-11.43324636 239.50786981 -12.9320649 236.46945874 -14.42178345 233.42523193 C-20.81612542 220.36495683 -27.3090779 207.35301494 -33.78979492 194.33544922 C-36.15465164 189.5832321 -38.51190715 184.82736772 -40.86206055 180.06787109 C-43.72827118 174.26450042 -46.60808194 168.46807534 -49.49777794 162.6763649 C-50.58900024 160.48353604 -51.67542085 158.28831064 -52.75684547 156.09063339 C-54.26210944 153.03403001 -55.78471144 149.9866792 -57.31176758 146.94091797 C-57.74980209 146.04125305 -58.18783661 145.14158813 -58.6391449 144.21466064 C-61.5888627 138.39268412 -64.51313901 134.3684305 -70.5 131.375 C-76.60064132 130.63072176 -80.85267336 131.03749514 -85.5 135.375 Z " fill="#000000" transform="translate(439.5,158.625)"/>
<path d="M0 0 C3.4375 1.8125 3.4375 1.8125 6 4 C6.5775 4.4125 7.155 4.825 7.75 5.25 C11.50570414 10.50798579 11.39696623 18.3250086 11.875 24.5625 C14.40523219 52.59643991 27.51623393 77.66613413 49 96 C65.63930635 109.04635229 84.98945689 116.75313873 106 119 C105.38125 118.2575 104.7625 117.515 104.125 116.75 C100.6492723 112.25199945 99.48108279 109.03925528 99.62109375 103.3828125 C100.28632775 99.19938219 102.21123541 96.13460084 105 93 C109.37620041 89.88803526 113.72969876 89.11251303 119 90 C125.22811745 92.23581272 129.6322511 96.05091293 134.203125 100.70703125 C134.84820007 101.35065109 135.49327515 101.99427094 136.15789795 102.65739441 C137.51050101 104.01164739 138.85820497 105.37080975 140.20117188 106.73461914 C142.24608205 108.80852649 144.30905669 110.86308266 146.375 112.91601562 C147.69382445 114.24107757 149.01157013 115.56721427 150.328125 116.89453125 C150.9385968 117.50206741 151.5490686 118.10960358 152.17803955 118.73554993 C156.66539735 123.32198264 161.57533326 128.64870561 161.5625 135.4375 C160.98851984 143.75737599 154.81654603 149.63805626 149.16015625 155.23828125 C148.51557968 155.885728 147.87100311 156.53317474 147.20689392 157.20024109 C145.8532808 158.55588133 144.49592944 159.90779843 143.13500977 161.25610352 C141.0610256 163.31396294 139.00361296 165.3874236 136.94726562 167.46289062 C135.62335707 168.78481754 134.29851861 170.10581396 132.97265625 171.42578125 C132.36309586 172.04141434 131.75353546 172.65704742 131.12550354 173.29133606 C127.15828133 177.194322 123.32652654 180.43449049 117.65625 181.3984375 C112.71238781 181.34469987 109.21950352 180.84571167 105 178 C100.77116149 173.42828269 99.55638619 169.59831156 99.56640625 163.49609375 C100.35741984 158.94242092 103.17724211 155.55365056 106 152 C104.99324219 151.84144531 103.98648438 151.68289063 102.94921875 151.51953125 C74.09677848 146.81098535 48.24582988 137.48259 26 118 C25.22140625 117.35417969 24.4428125 116.70835937 23.640625 116.04296875 C17.63316656 110.95734445 12.80287724 105.21700985 8 99 C7.03126953 97.80697266 7.03126953 97.80697266 6.04296875 96.58984375 C-5.08207662 82.29268768 -12.57489143 65.4819104 -17 48 C-17.17499023 47.33226562 -17.34998047 46.66453125 -17.53027344 45.9765625 C-19.69905148 37.4216994 -20.28427424 29.10065831 -20.375 20.3125 C-20.38901855 19.36721436 -20.40303711 18.42192871 -20.41748047 17.44799805 C-20.38268456 12.49671804 -20.26835331 8.98598697 -17 5 C-11.37317905 0.05937673 -7.40522908 -0.84176183 0 0 Z " fill="#000000" transform="translate(20,331)"/>
<path d="M0 0 C4.85390614 2.11806814 7.26254688 5.04754256 9.37109375 9.78515625 C10.48078187 13.69318832 10.13680527 17.1320022 9 21 C7.23222186 24.13638057 5.53270033 26.46729967 3 29 C3.61705811 29.08451416 4.23411621 29.16902832 4.86987305 29.25610352 C31.65044233 33.03523015 56.71569027 40.64222471 78 58 C78.80896729 58.64509521 78.80896729 58.64509521 79.63427734 59.30322266 C107.04874539 81.26382328 125.67201744 113.31130996 129.75390625 148.44921875 C130.05555108 152.80152277 130.24287709 157.13799278 130.3125 161.5 C130.33932861 162.63151489 130.33932861 162.63151489 130.36669922 163.78588867 C130.35918067 168.58755872 129.61302248 171.82789489 127 176 C122.53919374 180.12624579 119.1688366 181.32291825 113.0546875 181.2109375 C108.32208116 180.72508058 105.21959191 178.48257414 102.1875 175 C99.54121266 171.37080594 98.89136803 168.78628581 98.60546875 164.421875 C96.29497383 132.76162186 84.71832574 106.52218447 61 85 C46.02411641 72.520097 23.77377034 62 4 62 C4.61875 62.721875 5.2375 63.44375 5.875 64.1875 C9.8239241 69.41401719 10.4299246 73.13394445 9.59765625 79.5625 C8.60884726 83.59528962 7.11716116 85.2216607 4 88 C-0.61837671 90.75326304 -4.38396468 91.58219617 -9.61933899 90.69116211 C-16.40570215 88.72092063 -21.91998787 82.38871199 -26.80078125 77.5 C-27.40383591 76.90123047 -28.00689056 76.30246094 -28.6282196 75.68554688 C-29.88854228 74.43091721 -31.14632076 73.17372691 -32.40161133 71.9140625 C-34.31662619 69.99586695 -36.24466009 68.09144855 -38.17382812 66.1875 C-39.4044556 64.95914407 -40.63430115 63.73000414 -41.86328125 62.5 C-42.72110954 61.65598633 -42.72110954 61.65598633 -43.5962677 60.79492188 C-48.12303487 56.21540532 -51.42678109 51.68859784 -51.4375 45 C-51.45683594 44.195625 -51.47617187 43.39125 -51.49609375 42.5625 C-50.20917065 35.91508618 -44.36191452 31.06828702 -39.75 26.484375 C-39.05487305 25.78733459 -38.35974609 25.09029419 -37.64355469 24.37213135 C-36.18019128 22.90741267 -34.71432204 21.44519367 -33.24609375 19.98535156 C-31.0002578 17.75025656 -28.76532915 15.50465221 -26.53125 13.2578125 C-25.10480777 11.83269135 -23.67774554 10.40819044 -22.25 8.984375 C-21.58323242 8.31355896 -20.91646484 7.64274292 -20.22949219 6.95159912 C-19.60204102 6.33045227 -18.97458984 5.70930542 -18.328125 5.06933594 C-17.50683105 4.25042877 -17.50683105 4.25042877 -16.66894531 3.41497803 C-11.66017119 -0.8315993 -6.29340498 -0.71246094 0 0 Z " fill="#000000" transform="translate(382,0)"/>
<path d="M0 0 C2.27067101 2.09324677 3.70719486 4.03945477 5.0847168 6.79711914 C5.46488449 7.55122574 5.84505219 8.30533234 6.23674011 9.08229065 C6.63685806 9.8917363 7.03697601 10.70118195 7.44921875 11.53515625 C8.07543877 12.78684853 8.07543877 12.78684853 8.71430969 14.06382751 C9.59375288 15.82505122 10.470248 17.58774968 11.34399414 19.35180664 C12.68594007 22.05935265 14.03851073 24.76138981 15.39257812 27.46289062 C16.24542684 29.17416276 17.09766168 30.885741 17.94921875 32.59765625 C18.35540939 33.40912613 18.76160004 34.22059601 19.18009949 35.05665588 C19.5508107 35.80761032 19.92152191 36.55856476 20.3034668 37.33227539 C20.63195114 37.99385147 20.96043549 38.65542755 21.2988739 39.33705139 C22 41 22 41 22 43 C7.81 43 -6.38 43 -21 43 C-10.64695946 21.14358108 -10.64695946 21.14358108 -5.4375 10.8125 C-4.90576172 9.75353516 -4.37402344 8.69457031 -3.82617188 7.60351562 C-2.55269708 5.06803877 -1.27733749 2.53353239 0 0 Z " fill="#000000" transform="translate(364,337)"/>
<path d="M0 0 C9.57 0 19.14 0 29 0 C27.68117955 13.18820452 24.60682019 24.97344705 17 36 C14.78125 37.36328125 14.78125 37.36328125 13 38 C4.99622093 25.61374823 1.35324387 14.88568256 0 0 Z " fill="#000000" transform="translate(133,126)"/>
</svg>
